<svg version="1" xmlns="http://www.w3.org/2000/svg" width="620" height="620" viewBox="0 0 465.000000 465.000000"><path d="M233 184.5c0 .8.4 1.5 1 1.5.5 0 .7-.7.4-1.5-.4-.8-.8-1.5-1-1.5-.2 0-.4.7-.4 1.5z"/><path d="M240.6 184.5c-.5 1.3-1 1.4-2.7.4-1.2-.6-1.9-.7-1.5-.1 1.1 1.7-2.8 2.4-4 .7-.9-1.2-1.3-1.3-1.6-.3-.4 1-.9 1-2.3-.2-1.7-1.4-1.8-1.3-1.2.4.6 1.4.4 1.6-.5.9-1.7-1.4-11-1.4-10.1 0 .4.6 0 .8-1 .4-1.1-.4-1.4-.2-1.1.7.3.7-.2 1.6-1 1.9-.9.4-1.4.1-1.2-.6.1-.7.1-.9-.1-.5-.3.5-1.2.8-2.1.8-1.2 0-1.4.2-.5.8 1 .6 1 1.2-.2 2.8-1.3 1.6-1.4 1.6-.9.1 1-2.7-.5-2-1.6.8-.5 1.4-2.1 3-3.5 3.5s-2.5 1.5-2.5 2.1c0 .8.5.7 1.8-.2 1.5-1.1 1.5-1.1.4.1-.7.8-1.6 1.5-2.1 1.5-.8 0-6.7 6.4-7.2 8-.2.5-1 .9-1.7.8-.7 0-1.1.2-.8.5.3.3 0 1.2-.7 2.1-1.1 1.4-1 1.4.6.2.9-.7 1.7-.9 1.7-.5 0 .5-.9 1.5-2.1 2.2-1.2.8-1.8.9-1.5.4.3-.6-.1-1.3-1-1.6-1.1-.4-1.5-.2-1.1.8.4.9-.2 1.3-1.6 1.2-1.5-.1-2.2.5-2.1 1.6.1 1.4-.2 1.6-1.8.7-1.3-.7-1.8-.7-1.4-.1.3.6.2 1.3-.4 1.7-.6.4-.7 1.1-.4 1.7.4.7.2.8-.4.4-.6-.4-.9-1.4-.6-2.4.5-1.6.5-1.6-.9 0-.8 1-1.7 1.5-2 1.1-.4-.3-.7.1-.7 1s-.5 1.7-1.1 1.7c-.5 0-.7-.5-.3-1.2.4-.7.3-.8-.5-.4-.9.6-.9 1.1.1 2.4 1.1 1.3 1.1 1.5-.4 1-1.1-.5-1.8 0-2.2 1.7-.3 1.2-1.3 2.6-2.3 2.9-1.4.6-1.4.4.3-1.6 1.1-1.3 1.2-1.8.3-1-.9.6-1.8.9-2.2.6-.3-.3-.4.6-.3 2 .2 1.4-.1 2.6-.5 2.6-.5 0-.9-.5-.9-1 0-.6-.4-1-.9-1s-.8.8-.7 1.7c0 1-.5 1.7-1.2 1.5-.8-.1-1.1.2-.7.7.3.6 1.3.7 2.3.4 1.3-.4 1.3-.2-.3 1-1.1.8-2.9 1.3-4 1.1-1.7-.3-1.8-.2-.5.9 1.4 1.1 1.4 1.4-.2 2.9-1 1-1.8 1.4-1.8 1 0-.4.5-1.3 1.2-2 .9-.9.9-1.2 0-1.2-.6 0-1.4 1.1-1.8 2.5-.3 1.4-1.1 2.5-1.7 2.5-.5 0-.2 1 .9 2.2 1 1.2 1.3 1.8.7 1.4-1.2-.6-1.8.5-1.4 2.6 0 .5-.4.8-1 .8s-.8-.7-.5-1.6c.5-1.3.4-1.4-.7-.6-.8.7-1.8.8-2.3.4-.4-.4-.3 0 .4 1 .8 1 .9 1.9.3 2.2-.5.4-1.2.2-1.6-.4-.8-1.3-2.5-.3-2.5 1.3 0 .7.4.6 1-.3.5-.8 1-1 1-.4 0 1.9-1.3 2.4-2.8 1.1-1.3-.9-1.4-.9-.8 0 .4.8.2 1.3-.4 1.3-.6 0-.8.5-.4 1.2.6 1 .4 1-.8 0-1.3-1-1.8-1-2.4-.1-.4.7-.3.9.3.6.6-.4 1.3 0 1.6.8.4 1 .1 1.2-1 .8-1.1-.4-1.4-.2-.9.5.5.8.2 1-.8.6-1.1-.4-1.6 0-1.6 1 0 .9-.5 1.6-1.2 1.6-.6 0-.8.3-.5.6.4.4 1.5.1 2.4-.7 1-.7.8-.2-.4 1.2-1.3 1.4-2.3 2.9-2.3 3.5 0 .5.5.2 1-.6.8-1.2 1-1 1.1 1 .1 1.4 0 2.9-.1 3.5-.2.5-.3 2.4-.4 4.2 0 2.6-.3 3-1.7 2.3-1.3-.8-1.6-.4-1.4 2.5.1 2.3-.2 3.2-1 2.7-.6-.4-.2.1.8 1.1 1.9 1.7 1.9 1.7-.4 1.7-1.3 0-1.9.4-1.4.8.6.4 1.1 1.3 1.3 2.1.3 1.2 0 1.2-1.3.1-.8-.7-1.8-1-2.2-.6-.3.3-.1.6.5.6s1 .9.9 1.9c0 1.1-.6 1.7-1.4 1.4-.7-.3-1.3-.1-1.3.5s.6 1.3 1.3 1.5c.6.3-.5.4-2.5.3-2-.1-3.5.1-3.2.5.2.4-.4 1.2-1.3 1.8-1 .6-1.3 1.1-.8 1.1.6 0 1.7-.6 2.4-1.3 1-1 1.1-.9.6.5-.4 1-1.2 1.8-1.9 1.8-.6 0-.5.4.4.9.8.6 1.8.7 2.4.4.5-.3.6-.1.2.5-.4.7-.1 1.2.6 1.2.8 0 .9.3.3.8-.5.4-1.5 1.6-2.2 2.7-.6 1.1-1.6 1.9-2.2 1.7-.6-.1-1.1.6-1.2 1.5 0 1.2-.2 1.4-.6.5-.4-1-1.1-.5-2.4 1.5-1 1.5-2.4 2.8-3.1 2.8-.7.1-1.2.6-1 1.3.1.7-.3 1.2-.9 1.2-.5 0-.7.4-.4 1 .3.5 0 .7-.8.4-.8-.3-1.8 0-2.3.7-.5.8-.3 1 .7.5.8-.4.6-.1-.3.6-1.5 1.3-1.5 1.7-.2 4.3 1.2 2.2 1.2 2.5 0 1.6-1.1-.9-1.5-.8-2 .4-.3.9-.2 1.4.2 1.1.4-.3 1.4.5 2.2 1.7 1.2 2 1.2 2.1-.3.8-1.1-.9-1.7-1-1.8-.2-.1.6-.2 1.7-.3 2.3-.1.7.3 1.6.9 2 .6.5.5.8-.3.8-.7 0-1 .4-.7 1 .4.7-.3.7-2 0-2.3-.9-2.8-.7-3.2 1-.5 1.9-.6 2-1.9.3-1.3-1.7-1.4-1.7-.7.1.5 1.4.3 1.7-.7 1.1-.9-.5-1.1-.4-.6.4.4.6.2 2-.6 2.9-1.2 1.5-1.1 1.6.4.4 1.2-1 1.8-1 2.4-.1.4.7.3 1-.2.7-.5-.3-1.4 0-2.1.7-1 1.1-1 1.5 0 1.9.7.4.2.4-1 .2-2.7-.5-2.9.2-.6 2 1.6 1.2 1.6 1.3-.6.9-2-.4-2.2-.1-1.8 1.8.5 2 .5 2-.7.5-.7-1-1.6-1.5-1.9-1.1-.4.3-.2 1.1.3 1.8.7.8.5 1.2-.5 1.2-.8 0-1.5-.5-1.5-1.1 0-.6-.5-.4-1 .4-.9 1.3-1.1 1.3-2 0-.8-1.3-1-1.2-1 .4s-.2 1.7-1.7.5c-1.5-1.3-1.5-1.2-.5.8.9 1.6.9 2.4 0 2.9-.7.4-.8.3-.4-.4s.2-1.2-.5-1.2c-.6 0-.9.8-.6 1.9.3 1.4 0 1.7-1.4 1.4-1.1-.3-1.9 0-1.9.6 0 .7.4 1 .9.7.5-.4.4.5-.2 1.9-.7 1.4-1.5 2.5-1.9 2.5-.5 0-.8.5-.8 1.1 0 .5.6.7 1.3.3.9-.6.9-.4-.1.8-1 1.3-1 1.8-.1 2.4.8.5.9.3.4-.6-.5-.9-.4-1.1.4-.6 1.5 1 .3 2.9-1.4 2.2-.8-.3-1.1.2-.8 1.5.3 1 1 1.9 1.7 1.9.6 0 .5.4-.3.9s-1.5 2.2-1.5 3.7c-.1 1.5-.8 2.9-1.6 3.2-1.3.3-1.2.2 0-.7.8-.6 1-1.1.4-1.1-1.6 0-4.6 4.8-3.9 6 .3.6.1 1-.6 1s-.9 1-.7 2.4c.3 1.7.1 2.3-.8 1.9-.7-.2-1-1.2-.7-2.1.4-1.4.3-1.5-.5-.2-.8 1-.7 1.9.1 2.9 1 1.2.9 1.3-.2.6-1.1-.6-1.3-.4-.8.9.6 1.4.4 1.5-1.4.5-1.7-.9-2-.8-1.3.3 1.2 1.9 1.4 3.9.3 3.2-.5-.3-.7-1-.4-1.5.4-.5.2-.9-.3-.9-.6 0-1.3.7-1.6 1.6-.3.8-1 1.3-1.5 1-.5-.3-.7.3-.4 1.3.5 2.1-2.8 4.6-4.3 3.3-.5-.4-.3 0 .4.9 1.1 1.4 1 1.7-.5 1.5-1 0-1.7.5-1.6 1.1.2.7-.6 1.8-1.6 2.5-1.8 1.1-1.8 1.3-.3 2.5.9.7 1.3 1.3.7 1.2-2.3-.3-3.6.2-3 1.1.3.6 0 1-.7 1-1 0-1 .2 0 .8.9.7.8 1.3-.8 2.7-1.1 1-1.7 2.2-1.3 2.8.4.6.1.7-.6.3-.9-.6-.8-1.3.5-2.7.9-1 1.2-1.9.6-1.9s-1.6 1.4-2.4 3c-.7 1.7-1.7 3-2.1 3-.5 0-.5.6-.1 1.2.5.8 0 .7-1.1-.2-1-.8-1.6-1-1.2-.4.4.7 0 1.5-.9 1.8-.9.4-1.4.9-1 1.3.3.3-.1 1.7-1 3.1-1 1.5-1.1 2.1-.3 1.7.8-.6 1-.4.5.4-.5.7-1.5 1-2.3.6-1.3-.4-1.4-.3-.3 1 .7.8.8 1.5.3 1.5s-2 1-3.2 2.1l-2.3 2.2.7-2.3.7-2.2-2.1 2.1c-2.3 2.3-2.8 3.6-.9 2.5.7-.4.8-.3.4.5-.4.6-1.1.9-1.6.6-.5-.3-1.4.3-2 1.2-.9 1.5-1 1.4-.5-.7.5-2.1.4-2.2-.5-.7-.6.9-1.6 1.4-2.2 1.1-.7-.4-.8-.2-.4.4.4.7.1 1.2-.9 1.2-.9 0-1.3.5-1 1 .3.6.1 1-.4 1-.6 0-1.1-.4-1.1-.8s-1-.8-2.2-.9c-2-.2-2.1-.1-.5.8.9.6 1.7 1.5 1.7 2.2 0 .8-.3.9-.8.1-.4-.6-1.5-1.3-2.5-1.7-.9-.4-1.6-1-1.5-1.4.2-.4-.1-1-.7-1.1-.5-.2-1.9-.9-3-1.5-1.7-.9-1.8-.8-.8.5 1 1.2 1 1.5-.2 1.5-.8 0-1.5-.4-1.5-.8 0-.3-.9-.9-2-1.2-1.1-.3-1.8-.1-1.5.3.3.5.1 1.1-.5 1.5-.5.3-1 .2-1-.4 0-.5-.8-.8-1.7-.7-1.6.3-1.8 1.9-2.1 14.9L-.1 465H465v-8.1c0-6.4-.3-7.9-1.3-7.1-.8.7-1.8.6-3.1-.4-1.1-.8-1.5-1.4-1-1.4.6 0 1.5.4 2.2 1 .7.5.5.2-.3-.7-1.3-1.6-1.6-1.6-3.4.1-1.9 1.7-2 1.7-3.5-1.1l-1.5-2.8-.1 2.5c-.1 1.4-.4 1.9-.7 1.2-.2-.6-1.1-1.2-1.9-1.2-.9 0-1.2.5-.8 1.2.4.7.3.8-.5.4-.6-.4-.9-1.2-.6-1.7.4-.5-.3-.9-1.4-.9-1 0-2.2-.6-2.4-1.3-.3-.6-.6-.7-.6-.1-.1.6-1.4.9-3.1.6-1.6-.2-2.8-.7-2.6-1.1.3-.4-.4-1.3-1.6-2-1.1-.7-1.7-.8-1.3-.2.3.6-.1 1.1-1 1.1-1 0-1.3-.5-.9-1.3.5-.8.2-.8-.9.2-1.3 1-1.7 1-1.7.1 0-.8-.8-1-2.1-.7-1.6.4-1.8.3-.8-.9 1.4-1.7-.2-1.9-2-.2-1 1.1-1.2 1-.9-.2.2-.8-.2-1.4-.9-1.3-.6.1-1.4-.4-1.7-1.2-.3-1 0-1.2 1.2-.9 1 .3.7 0-.5-.8-2.1-1.3-2.3-1.6-2.3-3.8 0-.6-.5-1-1.1-1-.5 0-.7.5-.3 1.2.4.7.3.8-.4.4s-1.7-1.7-2.2-2.9c-1.1-2.2-1.1-2.2.6-.2 1.5 1.8 1.6 1.8 1 .2-.3-1-.6-2.1-.6-2.3 0-.2-1-.4-2.1-.4-1.7 0-1.9-.3-1-1.3 1.5-1.9.1-3-1.7-1.4-1.3 1-1.4.9-.8-.1 1-1.7-.2-5.2-2-5.2-.8 0-1.4-.5-1.4-1.1 0-.5.6-.7 1.3-.3.8.5.8.3-.2-.9-.7-.9-1.7-1.5-2.1-1.2-.4.2-1.6-.5-2.6-1.8-1.3-1.4-1.4-1.8-.4-1.2.9.6.8.3-.2-.7-2-1.8-2.4-3.3-.6-2.2.6.4.3-.5-.8-1.9-1-1.5-2.3-2.7-2.9-2.7-1.5 0-6.1-7.1-5.7-8.8.2-.9-.1-1.1-.9-.6-.9.5-1 .2-.5-1.1.6-1.6.4-1.6-1.1-.4-.9.8-1.4.9-1.1.4.3-.6 0-1.5-.7-2.2-1.1-1-1.5-1-1.9 0-.3.7-.3.1.1-1.3.5-2.1.4-2.3-.9-1.2-1.3 1-1.5.8-1-1.4.4-2.1.2-2.5-.8-1.9-1 .6-1.2.4-.8-.7.4-.8-.2-2.2-1.3-3.2-1.7-1.4-1.8-2-.8-3.9 1.1-2 1.1-2.1-.4-.8-2 1.6-2.3.1-.4-1.8.9-1.1.9-1.4 0-1.8-.9-.3-1-1-.4-2.1.4-.9.7-2.7.6-3.9-.1-1.6.2-2 1-1.3s1.2.5 1.2-.5c0-.8-.4-1.5-.9-1.5-.4 0-.8-.5-.8-1.1 0-.5.5-.7 1.1-.3.6.3.3-.6-.7-2.2-1.8-2.9-1.8-2.9.2-1.4 1.1.9 1 .5-.4-.8-1.3-1.2-2.8-1.9-3.4-1.6-.7.4-.8.2-.4-.5.4-.6 1.1-.9 1.6-.6.5.3 1.2 0 1.6-.6.4-.7.3-.9-.4-.5-.6.3-1.4.1-1.8-.5-.5-.9-1.1-.6-2.2.7-1.3 1.8-1.4 1.8-.7-.5.6-1.9.4-2.3-.8-1.8-1.1.4-1.4.2-1-.9.5-1.3-.8-1.9-3-1.5-.5.1-.6-.3-.3-.8s-.1-1.2-1-1.5c-.8-.3-1.3-.2-1 .3.3.5 0 1.1-.7 1.4-1 .4-1.3-.2-.9-1.8.3-2 .1-2.3-1.9-1.8-1.9.5-2.1.3-1.6-1.8.6-2.3.5-2.3-.8-.5-1.5 1.9-1.5 1.9-1.6-.5l-.1-2.4-.8 2.5c-.7 2.1-.8 2.2-.9.5-.2-2.2-2.3-5.5-3.6-5.5-.4 0-.2.6.4 1.4.9 1.1.9 1.6 0 2.2-.7.4-.9.3-.5-.4.3-.6.2-1.4-.4-1.7-.8-.5-.7-1.1.1-2.1.9-1.1.9-1.4 0-1.4-1.7 0-4.2-2.6-3.3-3.4.3-.4-.2-.4-1.3 0-1.8.7-1.9.6-.6-1 .8-.9 1-1.6.5-1.5-2 .3-3.5-.2-2.9-1 .3-.5 0-1.3-.6-1.7-.7-.4-.9-.3-.5.4.3.6.2 1.4-.4 1.7-.6.4-1 .3-.9-.2.4-2-.2-3.3-1.5-3.3-2.3 0-4.4-3.3-4.8-7.7-.1-.7-.5-1-1-.7-.4.3-.8 0-.8-.6s-.4-.9-.8-.6c-.4.2-.9-.4-.9-1.5-.1-1 .3-1.9.8-1.9.6 0 .7.5.3 1.2-.4.7-.3.8.5.4 1.7-1.1.2-2.8-2.1-2.3-1.5.4-1.7.3-.8-.8.8-1 .7-1.4-.2-1.8-1-.4-1-.8.2-1.6.9-.7 1.1-1.1.3-1.1-.7 0-1.7.8-2.3 1.7-1.1 1.7-1.1 1.7-.6 0 .3-1 .6-2.3.6-2.8 0-.6.5-.7 1.2-.3.7.4.8.3.4-.5-.4-.6-1.2-.8-1.8-.5-.7.5-.9 0-.6-1.4.4-1.5.2-1.9-.8-1.5-.8.3-1.4 0-1.4-.7 0-.6-.4-.9-.9-.6-.5.3-.8-.9-.7-2.6.2-2.2-.4-4-1.8-5.3l-2-2 1.7 2.7c1 1.6 1.4 2.8.9 2.8-.5 0-1.5-1.2-2.3-2.8-.8-1.5-1.8-3.1-2.4-3.5-.6-.5-.3-.7.8-.3.9.3 1.7.1 1.7-.4 0-.6-.7-1-1.5-1-1.3 0-1.7-.6-1.4-2.6 0-.4-.5-1.1-1.3-1.5-1.1-.7-1-1.1.2-1.9 1.2-.8.9-.9-1.1-.6-2.5.4-2.7.2-2.2-2.7.4-2.7.3-2.9-1-1.8-1.2.9-1.7.9-2.3 0-.5-.8-.3-.9.6-.4 1 .6 1.2.4.7-.8-.3-.9-.2-1.9.3-2.2.6-.4 1-1.1 1-1.6 0-.6-.4-.7-1-.4-.6.4-.7-.1-.3-1.1.5-1.4.3-1.6-1.1-1.1-1 .4-1.5.3-1.1-.3.3-.6.1-1-.6-1-.8 0-.7-.5.2-1.7 1-1.1 1-1.4.2-.9-.8.4-1.3.2-1.3-.4 0-.7-.9-.9-2.2-.5-1.3.3-1.8.3-1.2-.2.6-.4 1.3-1.6 1.7-2.6.6-1.5.4-1.6-1.3-.7-1.6.9-1.8.8-1.4-.5.4-.9.1-1.5-.7-1.5-1.2 0-1.2-.2-.1-.9 1.1-.7 1-.9-.3-1.5-1-.3-1.3-1.1-.9-1.8.5-.8 0-.7-1.1.2-1 .8-1.6 1-1.2.3.4-.6.2-1.3-.3-1.5-.6-.2-1.2-1.3-1.3-2.5 0-1.2-.4-2.1-.7-2.1-1.8.2-3-.3-3-1.3 0-.5.4-.8.9-.5.5.4.4-.7-.2-2.3-.6-1.7-1.5-2.8-1.9-2.5-.4.3-.8 0-.8-.6s-.5-.8-1.2-.4c-.7.5-.9.2-.5-.9.4-1.2.2-1.4-1-1-1.1.4-1.4.2-.9-.5.6-1.1-4.9-2.7-8.6-2.6-.9.1-1.6-.2-1.5-.6.1-.4-.9-1.6-2.3-2.8-2.2-1.8-2.3-2.2-1-3.7 1.4-1.6 1.3-1.7-1-1.2-1.4.4-1.9.4-1.2.1.6-.3 1-1 .6-1.5-.3-.5-.1-.8.4-.7.6.2 1-.1 1.1-.7 0-.5-.7-1-1.7-1-.9 0-1.6-.6-1.4-1.4.3-1.2.1-1.2-1.4 0-1 .8-1.5.9-1.1.3.4-.7 0-1.5-.9-1.8-.8-.3-1.2-.2-.9.3.3.5 0 1.3-.6 1.7-.7.4-.9.3-.6-.2.3-.6.2-1.6-.4-2.4-.7-1.2-.9-1.1-.9.5-.1 1.6-.4 1.4-1.6-1-.8-1.7-1.2-2.3-1-1.4.2.9-.2 1.6-.9 1.6s-1.1-.5-.9-1.2c.3-.6-.7-1.7-2.1-2.5-1.4-.7-2.3-1.5-2-1.8.2-.3 1.1.1 2 .8.9.7 1.8 1.1 2 .8.3-.3-.6-1.1-2-1.8s-2.5-1.7-2.5-2.2c0-.5.6-.6 1.3-.2.6.4.3-.2-.7-1.4-2-2.3-3.2-3-2.1-1.2 1.5 2.4-.6.7-2.6-2.2-1.3-1.7-1.8-2.8-1.1-2.4.7.4 1.2.2 1.2-.3 0-.6-.5-1.1-1-1.1-.6 0-1-.8-.8-1.8.2-1.2-.3-1.7-1.9-1.6-1.8.1-2.1-.2-1.3-1.7 1.5-2.7 1.2-3.3-.7-1.8-1.5 1.2-1.6 1.2-1-.5.6-1.4.4-1.7-.9-1.2s-1.4.3-.6-.6c1.3-1.6-.8-4.8-3.5-5.2-1.1-.2-1.7-1-1.5-2.1.2-1.2-.1-1.6-1.1-1.2-1 .4-1.3-.1-.9-1.9.5-2.7-.3-3.2-1.2-.9zm-20.1 2.4c.3.5.2 1.2-.3 1.5-.5.3-.9-.1-.9-.9 0-1.7.3-1.9 1.2-.6zm27.5 6.6c.7.9.8 1.5.2 1.5-.5 0-1.2-.7-1.6-1.5-.3-.8-.4-1.5-.2-1.5s.9.7 1.6 1.5zm43.5 46.5c.3.6-.1.7-.9.4-1.8-.7-2.1-1.4-.7-1.4.6 0 1.3.4 1.6 1zm7 6c.3.5.1 1-.4 1-.6 0-1.1-.5-1.1-1 0-.6.2-1 .4-1 .3 0 .8.4 1.1 1zm3 6.8c-.3.3-1.1 0-1.8-.7-.9-1-.8-1.1.6-.5 1 .3 1.5.9 1.2 1.2zM81 372c0 .5-.5 1-1.1 1-.5 0-.7-.5-.4-1 .3-.6.8-1 1.1-1 .2 0 .4.4.4 1zm-5.5 7c-.3.5-.1 1 .6 1s1 .3.6.6c-.9.9-2.8-.6-2.2-1.7.4-.5.8-.9 1.1-.9.3 0 .2.4-.1 1zM57 404c0 .5-.5 1-1.1 1-.5 0-.7-.5-.4-1 .3-.6.8-1 1.1-1 .2 0 .4.4.4 1zm345 3.5c.7.8.9 1.5.6 1.5-.4 0-1.4-.7-2.2-1.5-.9-.8-1.1-1.5-.6-1.5.5 0 1.5.7 2.2 1.5zM44.5 421c.3.6-.1.7-.9.4-1.8-.7-2.1-1.4-.7-1.4.6 0 1.3.4 1.6 1z"/><path d="M244.6 188.7c-.6 1.4-.5 1.5.5.6.7-.7 1-1.5.7-1.8-.3-.3-.9.2-1.2 1.2zM196.8 201c-.9 1-1.4 2.1-1 2.4.3.3 0 .6-.6.6-.7 0-1.2.6-1.2 1.2.1 1.5 5-3.8 5-5.3 0-1.2-.2-1.1-2.2 1.1zM257.5 206.9c-.6 1.1 1.3 2.6 2.2 1.7.4-.3.1-.6-.6-.6s-.9-.5-.6-1c.3-.6.4-1 .1-1-.3 0-.7.4-1.1.9zM280 232c0 .5.9 1.4 2 2 1.1.6 2 .9 2 .8 0-.2-.9-1.1-2-2.1-1.1-.9-2-1.3-2-.7zM152.7 244.1c.7.7 1.5 1 1.8.7.3-.3-.2-.9-1.2-1.2-1.4-.6-1.5-.5-.6.5zM137 268.1c0 .5.5.7 1 .4.6-.3 1-.8 1-1.1 0-.2-.4-.4-1-.4-.5 0-1 .5-1 1.1zM127.5 290c-.3.5-.1 1 .4 1 .6 0 1.1-.5 1.1-1 0-.6-.2-1-.4-1-.3 0-.8.4-1.1 1zM330 299.4c0 .2.7.7 1.6 1 .8.3 1.2.2.9-.4-.6-1-2.5-1.4-2.5-.6zM343.2 324.2c.3.7 1.2 1.4 2.2 1.4 1.3.2 1.3.1.1-.3-.8-.2-1.3-.9-1-1.4.4-.5.1-.9-.5-.9-.7 0-1 .6-.8 1.2zM383.3 371.2c-.2 1.8 0 2 .7.8 1.2-1.8 1.3-3 .2-3-.4 0-.9 1-.9 2.2zM396.6 399.5c.9 1.4 1.8 2.5 2 2.5.2 0-.2-1.1-.8-2.5-.6-1.4-1.5-2.5-2-2.5s-.1 1.1.8 2.5zM456.5 447.1c-.4.6-.5 1.2-.2 1.5.2.3.7-.2 1-1.1.7-1.7.1-2-.8-.4z"/></svg>